<svg xmlns="http://www.w3.org/2000/svg" viewBox="0 0 23 23"><path d="M1 1h7v7h-7zM10 1h1v1h-1zM13 1h1v1h-1zM15 1h7v7h-7zM2 2v5h5v-5zM11 2h1v1h-1zM16 2v5h5v-5zM3 3h3v3h-3zM9 3h2v2h-1v1h1v1h-1v2h-1zM13 3h1v8h-1v-2h-1v-1h1v-2h-2v-1h1v-1h1zM17 3h3v3h-3zM11 7h1v1h-1zM1 9h1v1h1v2h-2zM3 9h5v1h-3v1h1v2h-1v1h-1v-4h-1zM15 9h5v3h1v1h-3v-1h1v-2h-4zM8 10h1v1h1v-1h1v1h2v1h-1v1h-1v-1h-1v1h-1v-1h-2v-1h1zM21 10h1v1h-1zM14 11h1v3h-1zM16 12h1v2h2v1h-2v1h-2v-1h1zM1 13h2v1h-2zM6 13h3v1h-3zM10 13h1v1h-1zM12 13h1v1h1v5h-1v-2h-2v-1h2v-1h-2v-1h1zM21 13h1v2h-1zM9 14h1v1h-1zM1 15h7v7h-7zM10 15h1v1h-1zM19 15h2v1h-1v1h-2v-1h1zM2 16v5h5v-5zM9 16h1v1h1v1h-1v2h-1zM21 16h1v2h-1zM3 17h3v3h-3zM15 17h1v1h-1zM11 18h1v1h-1zM16 18h3v2h1v1h-1v1h-1v-1h-2v-1h2v-1h-2zM12 19h1v1h-1zM14 19h1v1h-1zM9 21h1v1h-1zM12 21h1v1h-1zM20 21h1v1h-1z"/></svg>